<svg
  width="32"
  height="32"
  viewBox="0 0 32 32"
  xmlns="http://www.w3.org/2000/svg"
>
  <defs>
    <linearGradient id="bgGradient" x1="0%" y1="0%" x2="100%" y2="100%">
      <stop offset="0%" style="stop-color: #3b82f6; stop-opacity: 1" />
      <stop offset="100%" style="stop-color: #1d4ed8; stop-opacity: 1" />
    </linearGradient>
  </defs>

  <!-- Background -->
  <rect width="32" height="32" rx="6" fill="url(#bgGradient)" />

  <!-- BLP file (left) -->
  <rect x="4" y="8" width="8" height="10" rx="1" fill="#1e40af" />
  <rect x="5" y="9" width="6" height="6" rx="0.5" fill="#3b82f6" />
  <rect x="6" y="10" width="4" height="0.5" fill="#ffffff" />
  <rect x="6" y="11" width="3" height="0.5" fill="#ffffff" />
  <rect x="6" y="12" width="3.5" height="0.5" fill="#ffffff" />
  <rect x="6" y="13" width="2.5" height="0.5" fill="#ffffff" />

  <!-- PNG file (right) -->
  <rect x="20" y="8" width="8" height="10" rx="1" fill="#059669" />
  <rect x="21" y="9" width="6" height="6" rx="0.5" fill="#10b981" />
  <rect x="22" y="10" width="4" height="0.5" fill="#ffffff" />
  <rect x="22" y="11" width="3" height="0.5" fill="#ffffff" />
  <rect x="22" y="12" width="3.5" height="0.5" fill="#ffffff" />
  <rect x="22" y="13" width="2.5" height="0.5" fill="#ffffff" />

  <!-- Conversion arrows -->
  <path
    d="M 13 13 L 19 13 M 18 12 L 19 13 L 18 14"
    stroke="#ffffff"
    stroke-width="1.5"
    fill="none"
    stroke-linecap="round"
  />
  <path
    d="M 19 13 L 13 13 M 14 12 L 13 13 L 14 14"
    stroke="#ffffff"
    stroke-width="1.5"
    fill="none"
    stroke-linecap="round"
  />

  <!-- Center symbol -->
  <circle cx="16" cy="13" r="2" fill="#ffffff" />
  <text
    x="16"
    y="14"
    text-anchor="middle"
    fill="#1e40af"
    font-family="Arial, sans-serif"
    font-size="3"
    font-weight="bold"
  >↔</text>
</svg>
